<svg class="mt(10) color(grey-700)" width="42" height="70" viewBox="0 0 60 100" fill="none" xmlns="http://www.w3.org/2000/svg">
    <path d="M0.658785 80.1408C2.02703 80.0402 3.44595 79.5375 4.86487 79.085C6.58784 78.5319 8.26014 77.9286 10.0338 77.9286C11.8074 77.9286 13.4797 78.4816 15.2027 79.085C16.8243 79.638 18.4459 80.1408 19.9662 80.1408C21.5372 80.1408 23.1588 79.5877 24.7804 79.085C26.5034 78.5319 28.1757 77.9286 29.9493 77.9286C31.723 77.9286 33.3953 78.4816 35.1182 79.085C36.7399 79.638 38.3615 80.1408 39.9324 80.1408C41.5034 80.1408 43.125 79.5877 44.7466 79.0347C46.4696 78.4816 48.1419 77.8783 49.9155 77.8783H49.9662C51.6892 77.8783 53.4122 78.4314 55.0845 79.0347C56.5541 79.5375 57.973 79.9899 59.3919 80.0905L59.2905 81.2469C57.7196 81.1463 56.1993 80.6435 54.679 80.1408C53.0574 79.5877 51.4865 79.085 49.9155 79.085H49.8142C48.2432 79.085 46.6216 79.638 45.0507 80.1408C43.3277 80.6938 41.6554 81.2971 39.8818 81.2971C38.1081 81.2971 36.4358 80.7441 34.7128 80.1408C33.0912 79.5877 31.4696 79.085 29.8986 79.085C28.3277 79.085 26.7061 79.638 25.0845 80.1408C23.3615 80.6938 21.6892 81.2971 19.9155 81.2971C18.1419 81.2971 16.4696 80.7441 14.7466 80.1408C13.125 79.5877 11.5034 79.085 9.98311 79.0347C8.41216 79.0347 6.79054 79.5877 5.16892 80.0905C3.69933 80.5933 2.22973 81.096 0.709461 81.1966H0.658785V80.1408ZM0.760137 78.2303C2.28041 78.0794 3.75 77.6269 5.2196 77.1242C6.84122 76.5711 8.46284 76.0684 10.0338 76.0684C11.6047 76.0684 13.2264 76.6214 14.7973 77.1745C16.5203 77.7275 18.1926 78.3308 19.9662 78.3308C21.7399 78.3308 23.4122 77.7778 25.1351 77.1745C26.7568 76.6214 28.3784 76.1187 29.9493 76.1187C31.5203 76.1187 33.1419 76.6717 34.7635 77.1745C36.4865 77.7275 38.1588 78.3308 39.9324 78.3308C41.7061 78.3308 43.3784 77.7778 45.1013 77.1745C46.723 76.6214 48.3446 76.1187 49.8649 76.1187H49.9155C51.4865 76.1187 53.0574 76.6717 54.679 77.1745C56.1993 77.6772 57.7196 78.18 59.2905 78.2805L59.3919 77.1242C57.973 77.0236 56.5541 76.5209 55.0845 76.0684C53.4122 75.5153 51.6892 74.9623 49.9662 74.912H49.8142C48.0405 74.912 46.3682 75.4651 44.6453 76.0684C43.0236 76.6214 41.402 77.1745 39.8311 77.1745C38.2601 77.1745 36.6385 76.6214 35.0169 76.1187C33.2939 75.5656 31.6216 74.9623 29.848 74.9623C28.0743 74.9623 26.402 75.5153 24.6791 76.1187C23.0574 76.6717 21.4358 77.1745 19.8649 77.1745C18.2939 77.1745 16.6723 76.6214 15.1014 76.1187C13.3784 75.5656 11.7061 74.9623 9.93243 74.9623C8.15878 74.9623 6.48649 75.5153 4.76351 76.1187C3.3446 76.5711 1.97635 77.0739 0.60811 77.1745H0.557434L0.760137 78.2303ZM0.861488 87.4309C2.38176 87.28 3.85135 86.8276 5.32095 86.3248C6.94257 85.7717 8.56419 85.269 10.1351 85.269C11.7061 85.269 13.3277 85.822 14.8986 86.3751C16.6216 86.9281 18.2939 87.5314 20.0676 87.5314C21.8412 87.5314 23.5135 86.9784 25.2365 86.3751C26.8581 85.822 28.4797 85.3193 30.0507 85.3193C31.6216 85.3193 33.2432 85.8723 34.8649 86.3751C36.5878 86.9281 38.2601 87.5314 40.0338 87.5314C41.8074 87.5314 43.4797 86.9784 45.2027 86.3751C46.8243 85.822 48.4459 85.3193 49.9662 85.3193H50.0169C51.5878 85.3193 53.1588 85.8723 54.7804 86.3751C56.3007 86.8778 57.8209 87.3806 59.3919 87.4811L59.4932 86.3248C58.0743 86.2242 56.6554 85.7215 55.1858 85.269C53.5135 84.7159 51.7905 84.1629 50.0676 84.1126H50.0169C48.2432 84.1126 46.5709 84.6657 44.848 85.269C43.2263 85.822 41.6047 86.3751 40.0338 86.3751C38.4628 86.3751 36.8412 85.822 35.2196 85.3193C33.4966 84.7662 31.8243 84.1629 30.0507 84.1629C28.277 84.1629 26.6047 84.7159 24.8818 85.3193C23.2601 85.8723 21.6385 86.3751 20.0676 86.3751C18.4966 86.3751 16.875 85.822 15.3041 85.3193C13.5811 84.7662 11.9088 84.1629 10.1351 84.1629C8.36149 84.1629 6.68919 84.7159 4.96622 85.3193C3.5473 85.7717 2.17906 86.2745 0.810812 86.3751H0.760137L0.861488 87.4309ZM0.760137 84.2634C2.28041 84.1126 3.75 83.6601 5.2196 83.1574C6.84122 82.6043 8.46284 82.1016 10.0338 82.1016C11.6047 82.1016 13.2264 82.6546 14.7973 83.2076C16.5203 83.7607 18.1926 84.364 19.9662 84.364C21.7399 84.364 23.4122 83.811 25.1351 83.2076C26.7568 82.6546 28.3784 82.1518 29.9493 82.1518C31.5203 82.1518 33.1419 82.7049 34.7635 83.2076C36.4865 83.7607 38.1588 84.364 39.9324 84.364C41.7061 84.364 43.3784 83.811 45.1013 83.2076C46.723 82.6546 48.3446 82.1518 49.8649 82.1518H49.9155C51.4865 82.1518 53.0574 82.7049 54.679 83.2076C56.1993 83.7104 57.7196 84.2132 59.2905 84.3137L59.3919 83.1574C57.973 83.0568 56.5541 82.554 55.0845 82.1016C53.4122 81.5485 51.6892 80.9955 49.9662 80.9452H49.8142C48.0405 80.9452 46.3682 81.4982 44.6453 82.1016C43.0236 82.6546 41.402 83.2076 39.8311 83.2076C38.2601 83.2076 36.6385 82.6546 35.0169 82.1518C33.2939 81.5988 31.6216 80.9955 29.848 80.9955C28.0743 80.9955 26.402 81.5485 24.6791 82.1518C23.0574 82.7049 21.4358 83.2076 19.8649 83.2076C18.2939 83.2076 16.6723 82.6546 15.1014 82.1518C13.3784 81.5988 11.7061 80.9955 9.93243 80.9955C8.15878 80.9955 6.48649 81.5485 4.76351 82.1518C3.3446 82.6043 1.97635 83.1071 0.60811 83.2076H0.557434L0.760137 84.2634Z" fill="black"/>
    <path d="M49.9155 69.1805C49.8649 69.0297 49.8142 68.9291 49.7128 68.8286C49.4088 68.8789 49.1047 68.8789 48.8007 68.9291L48.6993 65.5103L54.7297 65.3092L52.652 63.7506L54.6284 62.0412L48.598 62.2424V62.0915H47.7872L47.9899 68.9794C47.8378 68.9794 47.7365 68.9794 47.5845 69.0297C46.0135 68.5772 44.3919 68.1247 42.7196 67.823C42.5169 67.7728 42.2635 67.7225 42.0608 67.6722L28.6824 45.0478L28.6318 43.7406L33.4459 43.64C33.4459 43.7406 33.4966 43.8411 33.5473 43.8914C33.6487 43.992 33.8007 43.992 33.8514 43.992L40.6926 43.8411L36.8919 42.1317L40.4899 40.2212L35.0676 40.3721V40.2212C35.0169 39.9196 34.8142 39.8693 34.6115 39.8693C33.8007 39.8693 32.9392 39.9196 32.1284 39.9196C30.6081 39.9699 29.0878 39.9699 27.5169 40.0201H27.2128L27.3649 44.897V44.9472V44.9975V45.0478L16.0135 67.0689L8.20946 67.9236L7.65203 68.4264V71.8452L6.08109 73.5546L6.18244 75.9678L9.88176 75.0126C9.52703 72.8507 9.32433 71.3927 9.12163 69.5827L10.9966 75.1131C11.6047 75.0629 12.3649 75.264 13.0237 75.5154L12.7703 74.7109C15.5068 75.5656 19.3074 76.1187 23.5135 76.4203C23.9189 76.2695 24.375 76.1187 24.7804 76.0181C26.25 75.5154 27.7196 75.0126 29.2399 74.912C23.2095 74.8618 17.0777 74.3087 12.2128 73.0518L12.0101 72.3982C21.2331 75.0629 39.3243 74.7109 47.2804 72.4988L47.0777 73.2026C42.9223 74.2082 36.9932 74.8115 30.7601 74.8618C32.2804 74.9623 33.75 75.4651 35.2196 75.9678C35.625 76.1187 36.0811 76.2695 36.4865 76.3701C40.3378 76.1187 43.8345 75.6159 46.5203 74.912L46.2162 75.9176C46.8243 75.7165 47.6351 75.0629 48.0912 74.9623L50.0169 69.1805C49.9155 69.2308 49.9155 69.2308 49.9155 69.1805ZM46.5709 69.5827C45.8615 69.7838 45.1014 69.9347 44.2905 70.0855C42.5676 69.7336 36.0811 68.4264 29.5439 68.3761L29.4932 67.2197C32.0777 67.27 34.7128 67.4208 37.2973 67.7225C39.071 67.9236 40.8446 68.2253 42.6183 68.6275C43.9358 68.9291 45.2534 69.2308 46.5709 69.5827ZM28.3784 68.3761C27.0101 68.3761 25.6419 68.4264 24.375 68.5269L24.5777 67.3706C25.8446 67.3203 27.0608 67.27 28.3277 67.27L28.3784 68.3761ZM23.3108 68.5772C22.2973 68.6275 21.3345 68.728 20.4223 68.8286L20.8277 67.6219C21.6892 67.5214 22.6014 67.4208 23.5135 67.3706L23.3108 68.5772ZM19.3074 68.9291C17.9899 69.08 16.8243 69.2308 15.9122 69.3816L16.5203 68.2253C17.5845 68.0242 18.6487 67.8733 19.7128 67.7225L19.3074 68.9291ZM15.2534 68.4766L14.6453 69.5827C14.0372 69.6833 13.7331 69.7336 13.7331 69.7336V69.7838C13.0237 69.633 12.3142 69.4319 11.7061 69.2811C12.8716 68.9794 14.0372 68.728 15.2534 68.4766ZM19.0541 69.7336L18.75 70.6385C17.6858 70.4877 16.6723 70.3369 15.7095 70.186C16.571 70.0352 17.7365 69.8844 19.0541 69.7336ZM20.1689 69.5827C21.0811 69.4822 22.0946 69.3816 23.1588 69.3313L22.8547 71.0407C21.7905 70.9905 20.777 70.8899 19.7635 70.7894L20.1689 69.5827ZM24.223 69.2308C25.5405 69.1302 26.9595 69.08 28.3784 69.08L28.4291 71.2419C26.8581 71.2419 25.3378 71.1916 23.8682 71.091L24.223 69.2308ZM29.5946 71.2419L29.5439 69.08C34.5101 69.1302 39.4257 69.8844 42.2128 70.3872C38.3108 70.9905 33.9527 71.2921 29.5946 71.2419ZM40.7939 67.3706C40.0338 67.2197 39.2737 67.1192 38.4628 67.0186L32.1284 52.7401L40.7939 67.3706ZM37.2973 66.8678C36.5372 66.7672 35.7264 66.717 34.9662 66.6164L30.7601 52.0362L37.2973 66.8678ZM33.8514 66.5159C32.3818 66.4153 30.9122 66.365 29.4426 66.3148L28.8851 49.3716L33.8514 66.5159ZM27.7703 49.9749L28.277 66.365C27.0608 66.365 25.8953 66.4153 24.7297 66.4656L27.7703 49.9749ZM23.7162 66.5159C22.8547 66.5661 22.0439 66.6667 21.1824 66.717L26.4527 51.4832L23.7162 66.5159ZM20.0676 66.8175C19.0541 66.9181 18.0405 67.0689 17.027 67.27L25.4899 51.2318L20.0676 66.8175ZM10.9459 68.5772C10.6419 68.6777 10.3378 68.728 10.0845 68.8286L9.02027 69.1302C9.02027 69.0297 9.02027 68.9291 8.9696 68.8286L10.9459 68.5772ZM11.3514 70.6888L11.1487 70.0352C11.9595 70.2866 12.8716 70.538 13.8345 70.7391C15.3041 71.0407 16.9257 71.2921 18.6993 71.5435C27.6689 72.5993 39.9831 72.3982 47.8885 70.186L47.6858 70.7894C39.4257 73.1524 21.6892 73.3535 11.3514 70.6888Z" fill="black"/>
    <path d="M59.2905 26.546H55.2872C55.4899 26.3449 55.6419 26.0935 55.7432 25.8421L55.9459 25.3896L56.25 24.6858L55.4899 24.6355L54.9831 24.5852C54.7297 24.5852 54.527 24.5349 54.375 24.4847H54.3243C54.3243 24.4847 54.3243 24.4847 54.375 24.4847C55.1351 23.8311 55.6926 22.9261 56.098 21.82L56.3513 21.0659L56.7568 19.9095L55.5912 20.362L54.8311 20.6637C54.6791 20.7139 54.4257 20.7642 54.0709 20.7642C53.8682 20.7642 53.6149 20.7642 53.3615 20.7139L53.4628 20.2112C53.4628 20.1106 53.5135 20.0101 53.5642 19.9095C53.5642 19.8592 53.5642 19.8592 53.6149 19.809L53.7669 19.6078L54.5777 18.7029H53.9189C54.8818 15.5354 56.3514 12.2172 57.8209 8.9995C58.0236 8.49673 58.2263 8.04424 58.4797 7.54148L58.6824 7.03871L58.1757 6.78733C55.2365 5.32931 52.5 4.12268 50.2196 3.36853L49.9662 3.26797L49.7128 3.4188C49.0541 3.87129 48.4459 4.32378 47.7872 4.82655C47.5845 4.97738 47.4324 5.12821 47.2297 5.22876C47.3818 4.57516 47.5338 3.87129 47.6858 3.11714L47.7872 2.61438L47.2804 2.46355C44.2905 1.55857 41.25 0.904977 38.3108 0.502765L37.9561 0.452489L37.7534 0.754148L36.3345 2.76521L36.2331 2.91604V3.06687C36.1318 6.03318 36.0304 7.34037 35.8784 9.95475C35.8277 10.5078 35.8277 11.0608 35.777 11.7647L35.473 11.7144C35.6757 7.13927 35.6757 6.03318 35.9291 0.854701V0.301659L35.3716 0.251383C33.6993 0.100553 32.2297 0.0502765 30.6588 0H30.3547C28.4797 0 26.6047 0.100553 24.6791 0.251383L24.1216 0.301659L24.1723 0.854701C24.4257 5.83208 24.4764 7.18954 24.6791 11.7144H24.4763C24.3243 9.8542 24.1723 8.64756 24.0709 7.59176C23.9696 6.28457 23.8176 5.17848 23.6655 3.2177V3.06687L23.5642 2.91604L22.0946 0.854701L21.9426 0.653595L21.5878 0.703871C18.4966 1.10608 16.2162 1.60885 12.8716 2.5641L12.3649 2.71493L12.4662 3.2177C12.6182 4.02212 12.8209 4.77627 12.9223 5.42986L12.8716 5.37959L12.8209 5.32931L10.6926 3.51936L10.4899 3.31825L10.1858 3.36853C7.9054 3.97185 5.32095 4.97738 1.92568 6.6365L1.41892 6.88788L1.6723 7.39065L1.97635 8.04424L2.02703 8.1448L2.22973 8.54701C2.43243 8.94922 2.58446 9.40171 2.78716 9.80392C3.90203 12.3177 5.06757 14.9321 6.43581 19.0548C5.52365 20.362 5.47297 21.6692 5.625 22.5742C5.72635 23.0266 5.8277 23.5294 6.08108 23.9316C6.13176 24.0322 6.18243 24.1327 6.23311 24.2333C6.13176 24.7863 6.23311 25.3394 6.63851 25.8421C6.84122 26.0935 7.09459 26.3449 7.39865 26.546H0.709459H0V27.3002V85.1181C0 91.0005 3.09122 94.1679 9.02027 94.1679H23.3108C26.9595 94.1679 29.2905 96.3801 29.2905 100H30.7601C30.7601 96.3298 33.0912 94.1679 36.7399 94.1679H51.0304C56.5034 94.1679 59.7466 91.0005 60 85.9729C60 85.7215 60 85.4701 60 85.1684V27.3504V26.5963H59.2905V26.546ZM55.7939 20.8145L55.5912 21.3675L55.7939 20.8145ZM32.9392 22.8758C33.1419 22.725 33.3446 22.5742 33.5473 22.4233C33.6993 22.3228 33.8513 22.1719 33.9527 22.0714C35.6757 21.82 39.5777 23.1775 38.2095 22.4736C36.6385 21.7195 35.625 21.3675 34.5608 21.4178L34.7128 21.267L33.8007 21.3172C32.9392 21.3675 32.2804 21.1161 31.5709 20.7642C32.3818 20.362 33.75 19.8592 35.5236 20.0101C37.0439 20.1609 38.0068 20.8648 38.8682 21.5184C39.527 22.0211 40.1858 22.5239 40.9966 22.725C40.5405 23.0769 39.9831 23.278 39.4257 23.4791C38.8682 23.63 38.2601 23.7305 37.652 23.7808C36.8412 23.6802 35.9797 23.63 35.1689 23.5797H35.1182C34.2568 23.4791 33.5473 23.2278 32.9392 22.8758ZM25.9966 22.1217C25.5912 22.1217 25.2365 22.0714 24.8818 21.9708C26.1993 21.1664 31.0642 22.1217 29.4932 21.6189C27.0608 20.8145 25.8446 20.8145 24.1723 21.5184L24.1216 21.5686C23.9189 21.4681 23.7669 21.3675 23.5642 21.267C23.3615 21.1664 23.1588 21.0156 22.9561 20.915C23.7669 20.4625 25.2872 19.7587 27.1115 19.7587C28.4797 19.7587 29.4932 20.362 30.4054 20.915C31.1655 21.3675 31.9257 21.8703 32.8378 21.9708C32.7365 22.0714 32.5845 22.1217 32.4831 22.2222C31.3682 22.9261 29.6959 23.5294 27.4155 23.3283C26.8074 23.278 26.25 23.1775 25.7939 23.0266C25.9459 22.9261 26.098 22.8255 26.25 22.725L27.2128 22.0211L25.9966 22.1217ZM16.5709 23.4791C15 22.8255 14.1385 22.725 13.277 23.2278V22.7753L12.7196 23.0266C12.1115 23.278 11.3514 23.2278 10.5405 23.1775C10.5405 23.1775 10.5405 23.1775 10.5405 23.1272C10.5405 22.9764 10.4899 22.7753 10.3885 22.6747C11.0473 22.2725 12.0101 21.82 13.125 21.8703C13.9358 21.9206 14.5946 22.1217 15.2534 22.3731C16.1149 22.6747 16.9763 22.9764 18.1419 22.8758C17.3311 23.7305 16.5203 24.2836 15.7601 24.6355C14.7973 25.0377 13.8851 25.1383 13.1757 25.0377C13.0743 25.0377 12.9223 25.0377 12.8209 24.9874C12.9223 24.7361 13.0236 24.4847 13.125 24.183C13.1757 24.183 13.2264 24.1327 13.3277 24.0322C14.1385 23.0266 17.7872 23.9819 16.5709 23.4791ZM11.25 24.8869C9.375 24.0825 8.56419 24.1327 7.5 24.9372C7.44932 24.7863 7.39865 24.6858 7.44932 24.5349C7.5 24.4344 7.55067 24.2836 7.65203 24.1327C8.00676 23.7305 8.56419 23.6802 9.22297 23.7305C9.375 23.8311 9.52703 23.9316 9.72973 23.9316C9.88176 23.9316 9.98311 23.8813 10.1351 23.8311C10.8953 23.9316 11.7061 24.0322 12.4662 23.8813C12.3649 24.4847 12.0608 24.9874 11.7061 25.2891C11.1993 25.7416 10.5405 25.993 9.83108 26.1438C9.375 26.1438 8.81757 25.9427 8.31081 25.6913C8.20946 25.641 8.10811 25.5405 8.00676 25.4902L8.05743 25.4399C8.81757 24.4344 12.4662 25.3896 11.25 24.8869ZM9.1723 21.0156C9.07094 20.8648 8.91892 20.7642 8.76689 20.7139L8.96959 20.362C9.62838 19.3062 10.5405 18.8537 11.3514 18.4012C12.0101 18.0493 12.6689 17.6973 13.1757 17.1443V17.1946C13.2264 17.4962 13.2264 17.7979 13.277 18.0995C13.277 18.2504 13.277 18.4515 13.277 18.6023C13.125 18.7531 13.0743 18.9543 13.0743 19.1554C13.0743 19.3062 13.125 19.4067 13.1757 19.5073C13.0743 20.0603 12.8716 20.6134 12.5676 21.1161C11.3007 21.2167 10.2872 21.82 9.67905 22.2725C9.375 22.3228 9.07095 22.5239 8.96959 22.8255L8.86824 22.9261C8.66554 22.9261 8.51351 22.9261 8.36149 22.9764C8.36149 22.9261 8.31081 22.8758 8.26013 22.8758C8.00676 22.725 7.85473 22.2725 7.75338 21.82C7.9054 22.0714 8.15878 22.2725 8.46284 22.2725C8.81757 22.2725 9.12162 22.0714 9.22297 21.7195C10.3885 21.7195 11.0473 21.2167 12.0101 19.6078C12.6689 18.5018 10.3885 21.3172 9.1723 21.0156ZM7.5 17.446C8.31081 17.1443 9.12162 16.8426 9.93243 16.541L10.3378 18.0995C9.83108 18.4012 9.32432 18.7531 8.86824 19.2559C8.81757 19.0045 8.66554 18.6526 8.41216 18.3509L8.15878 18.0493L7.85473 18.3007C7.80405 18.3509 7.75338 18.4012 7.7027 18.4515C7.65203 18.2001 7.60135 17.9487 7.5 17.6471C7.5 17.6471 7.5 17.6471 7.55068 17.6471C7.55068 17.5465 7.5 17.4962 7.5 17.446ZM14.0372 18.3509C14.0372 18.3007 14.0372 18.2504 14.0372 18.2001C14.1892 18.0995 14.3412 17.9487 14.4932 17.8482C15.6081 17.094 16.6216 16.8426 17.5845 16.6415C18.2939 16.4907 18.9527 16.3399 19.5608 15.9879C19.5608 16.3901 19.5101 16.7421 19.4595 17.094C19.2568 17.2448 19.1047 17.4962 19.1047 17.7476C19.1047 17.8984 19.1554 17.999 19.2061 18.0995C19.1554 18.2001 19.1554 18.3007 19.1047 18.4012C18.6993 19.3565 17.9392 20.2112 16.7736 21.1161C16.6723 20.8145 16.3682 20.6134 16.0135 20.6134C15.5574 20.6134 15.2027 20.9653 15.2027 21.4178C15.152 21.4178 15.1013 21.3675 15 21.3675C15.3547 19.8592 18.9527 17.3957 17.7872 17.9487C15.9122 18.8537 14.848 19.809 14.2399 21.1664C13.9865 21.1161 13.7331 21.0659 13.4291 21.0659C13.6318 20.7139 13.7331 20.3117 13.8345 19.9598C13.8851 19.9598 13.8851 19.9598 13.9358 19.9598C14.3919 19.9598 14.7466 19.6078 14.7466 19.1554C14.6959 18.7531 14.4426 18.4012 14.0372 18.3509ZM20.2196 16.9935C20.2196 16.9432 20.2196 16.8929 20.2196 16.8426C20.4223 16.7421 20.6757 16.5913 20.8784 16.4907C22.2973 15.8371 23.5135 15.7868 24.6284 15.7366C25.4899 15.6863 26.3007 15.636 27.0101 15.3343C26.8074 16.2896 26.4527 17.1443 25.8446 17.8984C25.2365 18.6526 24.3243 19.3565 23.1081 20.0101C23.0574 19.6581 22.7027 19.3565 22.2973 19.3565C21.8412 19.3565 21.4865 19.7084 21.4865 20.1609C21.4865 20.2112 21.4865 20.2614 21.4865 20.2614C21.1824 20.2112 20.8784 20.1106 20.5743 20.1106C20.625 20.0603 20.625 20.0101 20.6757 19.9598C21.1824 18.5018 25.7939 16.9432 24.223 17.2448C21.7905 17.6973 20.4223 18.7531 19.4088 20.2112C19.1554 20.2614 18.902 20.362 18.6486 20.4123C19.1554 19.8592 19.5608 19.2559 19.8142 18.6526C19.8142 18.6023 19.8649 18.552 19.8649 18.5018C19.9155 18.5018 19.9662 18.5018 19.9662 18.5018C20.4223 18.5018 20.777 18.1498 20.777 17.6973C20.7263 17.446 20.5236 17.1443 20.2196 16.9935ZM28.4291 16.0885C28.7331 15.9879 29.0878 15.8874 29.3919 15.8371C31.4696 15.4349 32.7872 15.5354 33.9527 15.6863C34.9662 15.7868 35.8277 15.8874 36.8919 15.636C36.7905 15.8371 36.6892 16.0885 36.5372 16.2896C36.1824 16.3901 35.8784 16.6918 35.8784 17.094C35.8784 17.1443 35.8784 17.1443 35.8784 17.1946C35.3716 17.7979 34.8142 18.3007 34.1047 18.7029C33.3953 19.1554 32.5338 19.5576 31.5709 19.9095C31.4696 19.6078 31.1655 19.4067 30.8108 19.4067C30.4561 19.4067 30.152 19.6581 30.0507 19.9598C29.5946 19.7084 29.0878 19.457 28.5304 19.3062C29.848 17.8984 35.5236 17.8482 33.598 17.5968C30.6588 17.2448 28.6824 17.8482 26.9595 19.1051C26.4527 19.1051 25.9966 19.1554 25.5912 19.2559C25.8953 19.0045 26.1486 18.7029 26.402 18.4515C26.7061 18.0493 26.9595 17.6471 27.1622 17.1946C27.3142 17.2951 27.4662 17.3454 27.6689 17.3454C28.125 17.3454 28.4797 16.9935 28.4797 16.541C28.5304 16.3399 28.4797 16.2393 28.4291 16.0885ZM37.4493 16.5913C37.652 16.5913 37.8547 16.541 38.0068 16.541C40.0845 16.4907 41.402 16.8426 42.5676 17.1443C43.5304 17.3957 44.3919 17.6471 45.4561 17.5968C44.6453 18.7531 43.5811 19.6078 42.2128 20.1609C41.7061 20.362 41.1486 20.5631 40.5912 20.7139C40.4392 20.4625 40.1858 20.3117 39.9324 20.3117C39.5777 20.3117 39.2736 20.5631 39.1723 20.8648C38.6149 20.4123 38.0068 19.9598 37.1959 19.6581C38.4628 18.2504 44.3919 18.5018 42.4155 18.1498C39.4764 17.5968 37.5 18.1498 35.7263 19.3062H35.625C35.2196 19.3062 34.9155 19.2559 34.6115 19.3062C35.2703 18.8537 35.8784 18.3509 36.3851 17.7979C36.4865 17.8482 36.6385 17.8984 36.7905 17.8984C37.2466 17.8984 37.6014 17.5465 37.6014 17.094C37.6014 16.8426 37.5 16.6918 37.4493 16.5913ZM45.8108 18.3007C45.8108 18.2504 45.8615 18.2504 45.9122 18.2001C47.4831 18.2504 48.5473 18.7029 49.5101 19.1554C50.2196 19.457 50.9291 19.7587 51.6892 19.9095C51.6385 19.9598 51.5878 20.0101 51.5372 20.0603C51.2838 20.2614 51.0304 20.4625 50.777 20.6637C50.1182 21.1161 49.4088 21.5184 48.598 21.82C48.4459 21.6692 48.2432 21.5686 47.9899 21.5686C47.6351 21.5686 47.3311 21.7697 47.2297 22.1217C46.6216 21.7195 46.0135 21.3675 45.4054 21.1161C46.6723 20.3117 50.2703 20.4625 48.9527 20.2112C46.9764 19.8592 45.6081 20.1609 44.3412 20.8648C44.2905 20.8648 44.2399 20.8648 44.1385 20.8648H44.0878C43.6318 20.8648 43.0236 20.8648 42.4155 20.915L42.5676 20.8648C43.3784 20.5128 44.1385 20.0603 44.7466 19.5073C44.8986 19.7084 45.152 19.8592 45.4054 19.8592C45.8615 19.8592 46.2162 19.5073 46.2162 19.0548C46.2162 18.7029 46.0642 18.4515 45.8108 18.3007ZM52.7027 17.6471C52.5507 18.2001 52.3986 18.7029 52.2973 19.2559C51.3851 19.2056 50.625 18.8537 49.8142 18.5018L50.3209 16.5913C51.1318 16.8929 51.8919 17.1946 52.7027 17.5465C52.7027 17.5968 52.7027 17.5968 52.652 17.6471C52.652 17.5968 52.652 17.6471 52.7027 17.6471ZM51.4865 21.1161H51.4358H51.4865ZM18.75 23.3786C18.8514 23.4791 19.0034 23.4791 19.1047 23.3283C19.8142 22.4233 23.4628 23.3283 22.2973 22.8255C21.0811 22.3228 20.3209 22.1719 19.6115 22.3228L20.0169 21.7697L19.0541 21.9708C18.2939 22.1217 17.6858 22.1217 17.1284 22.0211C18.0405 21.4178 19.1554 20.8648 20.3209 20.915C21.5372 20.9653 22.3986 21.4681 23.2095 21.9206C23.7669 22.2725 24.3243 22.5742 24.9831 22.7753C24.4763 23.0769 23.9189 23.3283 23.3108 23.5294C22.8041 23.6802 22.2973 23.8311 21.6892 23.9316C21.0304 23.9819 20.3716 24.0825 19.7635 24.183C19.2061 24.183 18.6993 24.1327 18.1419 24.0322C18.3446 23.7808 18.5473 23.5797 18.75 23.3786ZM41.3007 23.4791C41.402 23.5797 41.5541 23.63 41.8074 23.5294C43.0743 22.8255 47.2804 24.8366 46.0135 23.9819C44.3919 22.9261 43.3784 22.5742 42.2128 22.725L42.7703 22.1719H41.9088C41.4527 22.1719 41.0473 22.0714 40.6419 21.8703C41.8074 21.6189 43.1757 21.5184 44.0878 21.5184H44.1385C45.2027 21.5686 46.3176 22.3228 47.3311 23.0266C47.9899 23.4791 48.6486 23.9316 49.2568 24.183C48.3953 24.5852 46.875 24.8869 44.2905 24.5852C43.7838 24.5349 43.277 24.4344 42.8716 24.3841C42.4155 24.2836 42.0608 24.183 41.7061 24.0322C41.4527 23.9316 41.1993 23.8311 40.9459 23.7305C40.9966 23.63 41.1486 23.5797 41.3007 23.4791ZM52.5 25.8924C51.4865 25.2388 50.5743 24.8869 49.7128 24.7361C49.8649 24.6858 49.9662 24.5852 50.0676 24.4847C50.2196 24.3841 50.3209 24.2333 50.4223 24.1327L50.7264 23.7305C51.1318 23.7305 51.4865 23.8813 51.7399 23.9819C52.0439 24.1327 52.2973 24.3338 52.5507 24.5852C52.6014 24.8869 52.8547 25.1383 53.1588 25.2388C53.4122 25.4399 53.6149 25.5908 53.8682 25.6913C53.9696 25.7416 54.1216 25.7919 54.223 25.7919C53.9189 26.0432 53.4628 26.2443 52.9561 26.3449C52.348 26.4455 51.6385 26.4455 50.9291 26.3449C50.4223 26.1941 49.8649 26.0432 49.3581 25.8924C49.1047 25.7919 48.902 25.6913 48.6993 25.5405C48.6486 25.4902 48.598 25.4902 48.5473 25.4399C49.8142 24.8366 53.6655 26.6968 52.5 25.8924ZM55.2365 25.641L55.3378 25.3896L55.2365 25.641C55.2365 25.6913 55.2365 25.641 55.2365 25.641C55.2365 25.641 55.2365 25.6913 55.2365 25.641ZM54.5777 21.9708C54.3243 22.5239 53.9696 23.0266 53.5135 23.4289C53.4628 23.4791 53.3615 23.5797 53.2601 23.63C53.1081 23.6802 52.9561 23.7305 52.8547 23.8311C52.652 23.63 52.3986 23.4791 52.1453 23.3283C52.0439 23.278 51.9932 23.278 51.8919 23.2278C52.1453 23.0769 52.3986 22.8758 52.7027 22.6747C53.2601 22.2222 52.2466 22.7753 51.2331 23.0266C50.8784 22.9764 50.4223 22.9261 49.9662 23.0266H49.8142C49.6622 22.9261 49.5101 22.9764 49.4088 23.0769C49.2568 23.1272 49.1047 23.1272 49.0034 23.1775C48.8514 23.0769 48.6993 23.0266 48.5473 22.9261C48.6993 22.8255 48.8007 22.6747 48.8007 22.4736C49.2061 22.3228 49.5608 22.1719 49.9155 22.0211C50.4223 21.8703 50.9797 21.82 51.4358 21.82C51.8412 21.82 52.2466 21.8703 52.6013 21.9206C53.3615 21.9708 54.0203 22.0211 54.5777 21.9708ZM56.8074 7.74258C56.25 9.10005 55.6419 10.4575 55.0845 11.815C54.1723 11.4128 53.2601 11.0106 52.348 10.6083C52.8547 9.2006 53.3615 7.79286 53.8682 6.43539C54.8818 6.83761 55.8446 7.23982 56.8074 7.74258ZM51.5878 10.3067C50.7263 9.95475 49.8649 9.65309 49.0541 9.35143L50.2196 4.97738C51.1824 5.32931 52.1959 5.68125 53.1588 6.08346C52.652 7.4912 52.1453 8.89894 51.5878 10.3067ZM50.0169 3.92157C50.3209 4.02212 50.6757 4.17295 50.9797 4.2735C50.6757 4.12267 50.3716 4.02212 50.0169 3.92157C49.5608 4.22323 49.1047 4.57516 48.6993 4.9271C49.1554 4.52489 49.5608 4.22323 50.0169 3.92157ZM48.8513 10.1559C50.8277 10.8597 52.8041 11.6642 54.7804 12.5691C54.1723 13.9769 53.5642 15.3846 53.0068 16.7924C51.2331 16.0382 49.4595 15.3846 47.6351 14.8316L48.8513 10.1559ZM49.5101 16.2896L49.0034 18.1498C48.2432 17.8482 47.4324 17.5968 46.3682 17.4962L46.5203 17.2951L46.9257 16.5913L46.1655 16.7421C44.848 16.9935 43.8851 16.7421 42.7703 16.3901C42.1622 16.2393 41.5541 16.0382 40.7432 15.9377L41.098 13.9266C43.9358 14.5299 46.723 15.2841 49.5101 16.2896ZM43.0236 2.86576C44.0372 3.11714 45.1013 3.36853 46.1149 3.67019L45.152 8.19507C44.2399 7.94369 43.3277 7.74258 42.3649 7.4912L43.0236 2.86576ZM38.8682 2.06134C39.9831 2.21217 41.098 2.41327 42.2128 2.66466L41.6047 7.2901C40.5405 7.08899 39.527 6.88788 38.4628 6.73705L38.8682 2.06134ZM38.3615 7.59176C40.5912 7.94369 42.7703 8.39618 45 8.9995L43.9865 13.7758C41.9595 13.273 39.9324 12.8708 37.9054 12.6194L38.3615 7.59176ZM40.2872 13.826L39.8818 15.8874C39.3243 15.7868 38.7162 15.7868 38.0068 15.7868C37.9054 15.7868 37.8041 15.7868 37.652 15.7868C37.7534 15.5857 37.8547 15.3846 37.9054 15.1332L38.1588 14.3791L37.3986 14.6305C36.1318 15.083 35.1689 14.9824 34.0034 14.8819C32.9899 14.7813 31.875 14.6807 30.3041 14.8819L30.3547 12.8205H30.5574C33.8513 12.9211 37.0946 13.2227 40.2872 13.826ZM30.6081 6.98844C31.8243 6.98844 33.0405 7.03871 34.2568 7.13927L34.0541 12.2172C32.8885 12.1166 31.7736 12.1166 30.6081 12.1166C29.1385 12.1166 27.6689 12.1669 26.1486 12.2675L25.8953 7.18954C27.4662 7.03871 29.0372 6.98844 30.6081 6.98844ZM30.4561 6.13374L30.5068 1.40774H30.7095C31.9764 1.40774 33.2432 1.45802 34.5101 1.55857L34.3074 6.28457C33.0912 6.18401 31.875 6.13374 30.6588 6.13374H30.4561ZM36.3345 12.368L34.8649 12.2675C34.8649 12.0161 34.8649 11.815 34.9155 11.5636C34.9155 11.7647 34.9155 12.0161 34.8649 12.2675L36.3345 12.368ZM30.3547 0.603318C30.4561 0.603318 30.5574 0.603318 30.6588 0.603318C32.2804 0.603318 33.75 0.703871 35.3209 0.804424C33.75 0.653595 32.2804 0.603318 30.6588 0.603318C30.3547 0.603318 30 0.603318 29.6959 0.603318C29.8986 0.603318 30.152 0.603318 30.3547 0.603318ZM29.6453 1.45802L29.5946 6.18401C28.3277 6.18401 27.1115 6.23429 25.8446 6.33484L25.6419 1.65913C26.9595 1.5083 28.3277 1.45802 29.6453 1.45802ZM29.5439 12.9211V15.083C29.4426 15.083 29.3412 15.1332 29.2905 15.1332C28.7838 15.2338 28.277 15.3846 27.7703 15.5857C27.8209 15.3343 27.8716 15.083 27.9223 14.7813L28.0236 14.0271L27.3649 14.4294C26.5541 14.9321 25.6419 14.9824 24.6284 15.0327C23.4628 15.083 22.1959 15.1835 20.625 15.8371C20.5236 15.8874 20.473 15.9377 20.3716 15.9879L20.3209 15.6863C20.3209 15.5354 20.3209 15.3846 20.3209 15.2338L20.2703 14.4294L20.1182 14.5802L19.9155 13.8763C23.1588 13.273 26.402 12.9211 29.5439 12.9211ZM22.2466 12.6194C20.2196 12.9211 18.1926 13.273 16.1655 13.7758L15.152 8.9995C17.3818 8.39618 19.5608 7.94369 21.7905 7.59176L22.2466 12.6194ZM21.3345 2.16189L21.7399 6.83761C20.625 6.98844 19.5608 7.18954 18.4459 7.44093L17.8378 2.81549C18.9527 2.5641 20.1689 2.31272 21.3345 2.16189ZM16.9764 2.96631L17.5845 7.54148C16.723 7.74258 15.8615 7.94369 15 8.19507L14.0878 3.72046C15.0507 3.4188 16.0135 3.16742 16.9764 2.96631ZM19.1047 14.0271L19.3581 15.2338C18.8007 15.5857 18.1419 15.7366 17.4324 15.9377C16.4696 16.1388 15.3547 16.4404 14.0878 17.2448L13.9865 17.2951C13.9865 17.1946 13.9865 17.1443 13.9358 17.0437C13.8851 16.7421 13.8345 16.4404 13.7331 16.189V16.1388L13.4797 15.3846C15.3547 14.8316 17.2297 14.3791 19.1047 14.0271ZM13.4797 15.3846L13.0743 16.0885C12.6182 16.8929 11.9088 17.2951 11.1486 17.6973L10.6926 16.2896C11.6047 15.9377 12.5676 15.6863 13.4797 15.3846ZM9.98311 4.97738L11.1486 9.35143C10.2365 9.65309 9.32432 9.95475 8.41216 10.3067L6.89189 6.08346C7.9054 5.73152 8.91892 5.32931 9.98311 4.97738ZM3.29392 7.59176C4.20608 7.18954 5.11824 6.78733 6.03041 6.38512C6.53716 7.79286 7.04392 9.2006 7.55068 10.5581C6.68919 10.91 5.8277 11.2619 4.96622 11.6139C4.45946 10.3067 3.90203 8.94922 3.29392 7.59176ZM5.37162 12.4686C7.39865 11.6139 9.375 10.8597 11.3514 10.2061L12.5676 14.8316C10.7939 15.3846 8.96959 15.9879 7.14527 16.6918C6.53716 15.2841 5.97973 13.8763 5.37162 12.4686ZM6.48649 20.0101C6.63851 19.7084 6.79054 19.457 6.99324 19.1554C6.89189 18.904 6.84122 18.6023 6.73986 18.3509C6.84122 18.6023 6.89189 18.8537 6.99324 19.1554C6.79054 19.457 6.63851 19.7587 6.48649 20.0101ZM6.73986 24.3338C6.73986 24.4344 6.68919 24.5349 6.68919 24.6355C6.68919 24.5349 6.73986 24.4344 6.73986 24.3338C6.73986 24.2836 6.79054 24.183 6.79054 24.1327C6.79054 24.2333 6.73986 24.2836 6.73986 24.3338ZM7.19595 23.3786C7.04392 23.1272 6.94257 22.7753 6.89189 22.3731C6.73986 21.4178 6.94257 20.2112 8.00676 19.1554C8.10811 19.4067 8.15878 19.6581 8.20946 19.809C8.26013 20.0101 8.26013 20.1609 8.36149 20.3117L8.51351 20.6134C8.10811 20.6134 7.80405 20.8648 7.7027 21.267C7.65203 20.7642 7.65203 20.4625 7.55068 20.8648C7.2973 22.0714 7.34797 22.6244 7.9054 23.1775C7.7027 23.278 7.5 23.3786 7.34797 23.5294C7.24662 23.4791 7.24662 23.4289 7.19595 23.3786ZM17.9392 26.4957C21.6892 25.641 25.7939 25.1885 30.152 25.1885C33.1926 25.1885 36.0811 25.4399 38.8682 25.8421C39.3243 25.8924 39.7804 25.993 40.1858 26.0432C41.0473 26.1941 41.8581 26.3952 42.6182 26.546H17.6351C17.7365 26.546 17.8378 26.546 17.9392 26.4957ZM58.1757 85.3695C58.1757 85.5204 58.1757 85.6712 58.1757 85.8723C57.973 89.995 55.4392 92.3077 51.0811 92.3077H36.3851C33.598 92.4082 31.3176 93.6149 30.0507 95.6259C28.7838 93.6149 26.5034 92.4082 23.7669 92.3077H23.3615H9.02027C4.1554 92.3077 1.875 90.0453 1.875 85.1684V28.4565H58.1757V85.3695Z" fill="black"/>
</svg>
